<svg xmlns="http://www.w3.org/2000/svg" width="512" height="512" viewBox="0 0 512 512" version="1.1"><path d="M 318.878 160.309 C 306.464 164.540, 296.451 174.572, 292.009 187.225 C 285.571 205.570, 295.191 225.914, 313.824 233.358 C 319.770 235.733, 333.846 236.627, 341.044 235.087 C 346.544 233.910, 360.030 228.219, 359.965 227.102 C 359.945 226.771, 359.286 225.375, 358.500 224 C 356.805 221.035, 356.598 213.986, 358.053 208.750 C 358.956 205.498, 359.486 205, 362.047 205 C 364.333 205, 365 204.548, 365 203 C 365 201.081, 364.333 201, 348.500 201 C 332.667 201, 332 201.081, 332 203 C 332 204.647, 332.667 205, 335.777 205 C 337.855 205, 340.555 205.701, 341.777 206.557 C 343.771 207.953, 344 208.969, 344 216.434 C 344 226.769, 343.416 227.379, 333.097 227.834 C 326.307 228.133, 324.917 227.863, 320.018 225.291 C 309.742 219.898, 304.564 209.537, 304.631 194.500 C 304.723 173.724, 320.127 161.394, 338.266 167.575 C 343.772 169.451, 351.231 175.730, 352.986 179.966 C 353.677 181.635, 354.577 183, 354.985 183 C 355.877 183, 357 175.410, 357 169.381 C 357 165.330, 356.736 164.906, 353.031 163.016 C 347.668 160.280, 337.694 158.027, 331 158.041 C 327.942 158.047, 322.560 159.054, 318.878 160.309 M 141 163.455 C 141 164.326, 142.407 165.173, 144.511 165.568 C 146.442 165.930, 148.355 166.738, 148.761 167.363 C 149.167 167.989, 149.725 179.075, 150 192 C 150.480 214.575, 150.598 215.692, 152.992 220.379 C 158.089 230.361, 168.381 236, 181.500 236 C 191.466 236, 198.521 233.329, 203.865 227.531 C 210.953 219.841, 211.285 218.374, 211.927 191.901 C 212.527 167.206, 212.951 165, 217.107 165 C 218.131 165, 220.438 166.312, 222.234 167.916 L 225.500 170.832 225.794 192.166 C 225.956 203.900, 225.731 217.309, 225.294 221.964 L 224.500 230.429 220.698 231.326 C 218.048 231.951, 216.988 232.700, 217.199 233.797 C 217.455 235.125, 219.483 235.380, 230.251 235.435 C 241.316 235.491, 243 235.288, 243 233.895 C 243 232.941, 241.680 231.911, 239.750 231.357 C 236.682 230.477, 236.458 230.091, 235.741 224.463 C 235.324 221.183, 235.099 210.705, 235.241 201.177 L 235.500 183.854 246.439 195.677 C 268.822 219.869, 283.319 234.908, 284.804 235.478 C 285.646 235.801, 286.790 235.610, 287.347 235.053 C 287.999 234.401, 288.267 222.836, 288.100 202.604 C 287.922 181.129, 288.190 170.514, 288.943 169.106 C 289.550 167.973, 291.498 166.669, 293.273 166.209 C 295.048 165.749, 296.500 164.726, 296.500 163.936 C 296.500 162.762, 294.133 162.500, 283.500 162.500 C 272.977 162.500, 270.500 162.769, 270.500 163.911 C 270.500 164.687, 272.033 165.838, 273.907 166.469 C 275.922 167.147, 277.667 168.570, 278.178 169.952 C 278.653 171.237, 278.920 180.828, 278.771 191.265 L 278.500 210.242 256.500 186.155 L 234.500 162.068 214.177 162.034 C 195.680 162.003, 193.882 162.151, 194.177 163.678 C 194.355 164.601, 195.766 165.695, 197.314 166.109 C 203.051 167.643, 203 167.419, 203 191 C 203 214.291, 202.474 217.409, 197.837 221.625 C 193.985 225.128, 191.234 226.103, 185.128 226.132 C 175.604 226.178, 169.502 222.518, 165.908 214.605 C 164.279 211.019, 164.041 207.820, 164.022 189.285 C 164.001 169.322, 164.114 168.009, 165.934 167.035 C 166.998 166.466, 168.746 166, 169.818 166 C 170.926 166, 171.992 165.137, 172.290 164 C 172.797 162.062, 172.320 162, 156.906 162 C 143.654 162, 141 162.243, 141 163.455 M 142 253 C 142 253.661, 179.833 254, 253.500 254 C 327.167 254, 365 253.661, 365 253 C 365 252.339, 327.167 252, 253.500 252 C 179.833 252, 142 252.339, 142 253 M 385 270 C 385.589 271.100, 386.505 272, 387.035 272 C 388.623 272, 388.125 269.262, 386.418 268.607 C 384.004 267.680, 383.843 267.838, 385 270 M 378.713 271.011 C 377.308 272.117, 375.386 275.042, 374.443 277.511 C 373.194 280.780, 372.154 282.032, 370.614 282.116 C 368.925 282.209, 368.852 282.324, 370.250 282.689 C 371.212 282.941, 372.005 283.451, 372.012 283.823 C 372.052 286.070, 365.366 303.303, 363.805 304.979 C 361.603 307.343, 363.106 307.752, 365.435 305.422 C 367.797 303.060, 369.109 300.315, 372.086 291.511 C 374.238 285.144, 375.265 283.388, 377.143 282.861 C 379.450 282.213, 379.453 282.197, 377.286 282.100 L 375.071 282 377.107 277.250 C 378.227 274.637, 379.856 271.712, 380.726 270.750 C 382.847 268.407, 381.862 268.534, 378.713 271.011 M 220 273.250 C 220 273.663, 220.675 274, 221.500 274 C 222.746 274, 223 275.936, 223 285.427 C 223 295.468, 222.788 296.909, 221.250 297.311 C 220.287 297.562, 223.662 297.820, 228.750 297.884 C 233.838 297.948, 238 297.587, 238 297.082 C 238 296.577, 238.262 295.339, 238.582 294.332 C 239.132 292.598, 239.086 292.594, 237.721 294.250 C 236.783 295.389, 234.872 296, 232.247 296 C 227.762 296, 227 295.026, 227 289.288 L 227 285.740 231.500 286.247 C 235.205 286.665, 236 286.465, 236 285.120 C 236 283.797, 235.144 283.554, 231.500 283.843 L 227 284.201 227 279.601 L 227 275 231.300 275 C 233.665 275, 236.140 275.540, 236.800 276.200 C 237.733 277.133, 238 276.856, 238 274.950 C 238 272.531, 237.884 272.500, 229 272.500 C 224.050 272.500, 220 272.837, 220 273.250 M 244 272.981 C 240.628 273.380, 240.044 273.671, 241.670 274.142 C 243.621 274.707, 243.874 275.568, 244.170 282.636 C 244.630 293.599, 244.200 296.792, 242.191 297.322 C 241.261 297.567, 243.200 297.785, 246.500 297.805 C 249.800 297.825, 251.825 297.585, 251 297.271 C 248.734 296.408, 248.032 294.876, 248.015 290.750 C 247.992 285.127, 251.052 285.672, 255.351 292.055 C 259.602 298.367, 265.761 302.978, 270.709 303.552 C 274.343 303.974, 274.376 303.952, 271.500 303.025 C 266.777 301.503, 261.405 296.454, 258.671 290.967 L 256.161 285.930 258.580 283.510 C 259.911 282.180, 261 280.170, 261 279.045 C 261 276.383, 257.610 273.035, 254.750 272.872 C 253.512 272.802, 251.600 272.678, 250.500 272.597 C 249.400 272.516, 246.475 272.689, 244 272.981 M 268.881 272.981 C 267.991 273.515, 266.700 275.311, 266.012 276.970 C 264.394 280.878, 266.205 283.860, 272.209 287.172 C 275.718 289.108, 276.500 290.062, 276.500 292.411 C 276.500 293.990, 275.782 295.735, 274.905 296.288 C 272.359 297.894, 268.115 296.308, 267.407 293.485 C 266.601 290.275, 265 290.270, 265 293.477 C 265 299.054, 274.976 300.728, 278.471 295.738 C 281.811 290.969, 279.786 286.009, 273.083 282.543 C 269.186 280.528, 267.417 277.407, 269.053 275.436 C 270.670 273.487, 273.932 273.628, 276.273 275.747 C 278.135 277.432, 278.191 277.405, 277.852 274.997 C 277.561 272.936, 276.889 272.457, 274 272.255 C 272.075 272.120, 269.772 272.447, 268.881 272.981 M 286.500 272.907 C 283.117 273.308, 282.066 273.732, 283.250 274.219 C 284.760 274.839, 285 276.377, 285 285.419 C 285 294.347, 284.741 296.052, 283.250 296.920 C 281.909 297.701, 282.786 297.939, 287 297.939 C 291.214 297.939, 292.091 297.701, 290.750 296.920 C 289.252 296.047, 289 294.324, 289 284.950 C 289 275.883, 289.258 274, 290.500 274 C 291.325 274, 292 273.550, 292 273 C 292 272.450, 291.887 272.071, 291.750 272.157 C 291.613 272.244, 289.250 272.581, 286.500 272.907 M 294.818 274.820 C 295.132 276.468, 295.570 276.830, 296.330 276.070 C 296.918 275.482, 299.110 275, 301.200 275 L 305 275 305 285.450 C 305 294.348, 304.740 296.052, 303.250 296.920 C 301.925 297.692, 302.957 297.931, 307.500 297.906 C 312.091 297.881, 312.972 297.661, 311.250 296.969 C 309.116 296.111, 309 295.520, 309 285.532 L 309 275 313.500 275 C 315.975 275, 318 275.450, 318 276 C 318 276.550, 318.450 277, 319 277 C 319.550 277, 320 276.325, 320 275.500 C 320 273.523, 322.969 273.590, 325.886 275.633 C 331.211 279.363, 334.324 294.547, 330.250 296.920 C 328.925 297.692, 329.957 297.931, 334.500 297.906 C 339.091 297.881, 339.972 297.661, 338.250 296.969 C 336.406 296.228, 336.001 295.291, 336.006 291.782 C 336.018 282.059, 340.825 274.032, 346.673 273.970 C 349.037 273.944, 349.220 273.776, 347.787 272.941 C 345.257 271.466, 339.313 274.287, 337.227 277.952 C 335.234 281.455, 334.369 281.739, 333.550 279.158 C 333.229 278.145, 331.820 276.240, 330.420 274.925 C 327.947 272.602, 327.401 272.534, 311.126 272.517 L 294.377 272.500 294.818 274.820 M 117.155 273.671 C 118.515 274.032, 118.872 275.793, 119.155 283.534 C 119.475 292.278, 119.700 293.158, 122.273 295.729 C 124.572 298.027, 125.909 298.500, 130.109 298.500 C 134.418 298.500, 135.533 298.081, 137.587 295.694 C 139.650 293.295, 140.002 291.846, 140.014 285.694 C 140.030 276.998, 140.680 274.247, 142.853 273.670 C 143.759 273.429, 142.250 273.232, 139.500 273.232 C 136.750 273.232, 135.287 273.438, 136.250 273.689 C 137.759 274.084, 138 275.433, 138 283.502 C 138 295.044, 136.887 296.688, 129.500 296.060 C 128.400 295.967, 126.487 294.765, 125.250 293.389 C 123.314 291.237, 123 289.776, 123 282.912 C 123 275.575, 123.180 274.863, 125.250 274.031 C 126.950 273.348, 126.032 273.140, 121.500 273.179 C 118.200 273.208, 116.245 273.430, 117.155 273.671 M 146.500 274.195 C 149.674 275.995, 149.969 277, 149.969 286 C 149.969 294.764, 149.566 296.294, 147 297.271 C 146.175 297.585, 147.750 297.864, 150.500 297.891 C 154.359 297.928, 155.101 297.707, 153.750 296.920 C 152.303 296.077, 152.007 294.482, 152.040 287.700 L 152.080 279.500 161.509 289.500 L 170.937 299.500 170.969 286.823 C 170.996 275.607, 171.202 274.094, 172.750 273.689 C 173.713 273.438, 172.250 273.215, 169.500 273.195 C 166.750 273.175, 165.175 273.415, 166 273.729 C 168.533 274.693, 168.971 276.224, 168.937 284 L 168.904 291.500 160.202 282.245 C 152.399 273.946, 151.138 272.993, 148 273.025 C 144.875 273.057, 144.714 273.182, 146.500 274.195 M 178.250 273.689 C 179.782 274.090, 180 275.509, 180 285.106 C 180 295.536, 179.891 296.108, 177.750 296.969 C 176.028 297.661, 176.909 297.881, 181.500 297.906 C 186.043 297.931, 187.075 297.692, 185.750 296.920 C 184.253 296.048, 184 294.328, 184 285.024 C 184 275.505, 184.219 274.090, 185.750 273.689 C 186.713 273.438, 185.025 273.232, 182 273.232 C 178.975 273.232, 177.287 273.438, 178.250 273.689 M 191.509 273.942 C 192.882 274.499, 195.064 278.590, 198.410 286.878 C 201.101 293.545, 203.484 299, 203.706 299 C 203.928 299, 205.241 296.413, 206.623 293.250 C 213.148 278.316, 215.373 274.066, 216.875 273.665 C 217.769 273.427, 216.475 273.215, 214 273.195 C 211.525 273.175, 210.063 273.385, 210.750 273.662 C 211.438 273.940, 212 274.691, 212 275.333 C 212 276.901, 205.641 291.970, 204.972 291.987 C 204.681 291.994, 202.970 288.104, 201.170 283.341 C 198.593 276.527, 198.173 274.507, 199.198 273.857 C 199.970 273.367, 198.261 273.050, 195 273.079 C 191.153 273.112, 190.104 273.372, 191.509 273.942 M 248 279.531 C 248 285.821, 249.221 286.958, 253.689 284.827 C 259.370 282.117, 257.300 274, 250.929 274 C 248.043 274, 248 274.082, 248 279.531 M 363.384 283.292 C 365.066 284.521, 365.054 284.837, 363.135 289.888 C 362.026 292.805, 360.305 295.802, 359.310 296.547 C 357.633 297.801, 357.667 297.859, 359.774 297.327 C 364.973 296.017, 369.050 285.972, 365.450 283.340 C 364.442 282.603, 363.168 282, 362.618 282 C 362.068 282, 362.413 282.581, 363.384 283.292 M 357.135 285.811 C 354.233 289.886, 353.654 293.161, 355.424 295.500 C 356.882 297.428, 356.938 297.390, 356.968 294.461 C 356.986 292.790, 357.900 289.658, 359 287.500 C 361.306 282.976, 361.301 283, 360.068 283 C 359.556 283, 358.235 284.265, 357.135 285.811 M 71 310.731 C 71 310.932, 72.169 312.101, 73.597 313.330 C 76.182 315.554, 76.193 315.628, 76.072 330.032 C 75.969 342.274, 75.694 344.692, 74.284 345.750 C 72.875 346.807, 73.372 347, 77.500 347 C 81.862 347, 82.184 346.855, 80.522 345.639 C 78.956 344.495, 78.589 342.520, 78.204 333.190 C 77.953 327.091, 78.027 321.371, 78.369 320.480 C 78.846 319.239, 80.927 320.928, 87.242 327.679 C 91.780 332.531, 98.001 339.142, 101.067 342.371 L 106.640 348.242 106.570 330.586 C 106.512 315.927, 106.755 312.768, 108 311.980 C 109.106 311.280, 108.537 311.027, 105.832 311.015 C 103.814 311.007, 101.339 310.746, 100.332 310.436 C 99.324 310.126, 99.737 310.591, 101.250 311.468 L 104 313.064 104 325.532 C 104 332.389, 103.820 338, 103.601 338 C 103.381 338, 97.647 332.038, 90.859 324.750 C 80.155 313.258, 78.018 311.425, 74.758 310.933 C 72.691 310.621, 71 310.530, 71 310.731 M 251.056 312.252 C 238.039 319.136, 236.361 336.916, 248.002 344.620 C 253.417 348.203, 261.636 348.946, 268.959 346.514 C 273.878 344.880, 274.086 344.667, 273.478 341.901 C 272.532 337.591, 273.861 332.998, 276.344 331.996 C 277.823 331.400, 275.989 331.138, 270.500 331.163 C 265.748 331.185, 263.515 331.480, 265 331.890 C 266.827 332.395, 267.751 333.586, 268.433 336.318 C 270.581 344.919, 264.752 349.086, 255.510 345.557 C 248.909 343.036, 245.654 337.834, 245.222 329.111 C 244.657 317.733, 249.711 311.500, 259.500 311.500 C 265.351 311.500, 269.493 313.733, 271.735 318.096 C 272.921 320.404, 272.971 320.349, 272.985 316.699 C 272.998 313.301, 272.632 312.744, 269.532 311.449 C 264.250 309.242, 256.076 309.597, 251.056 312.252 M 167.015 321.321 C 167.001 324.795, 167.143 325, 168.571 323.571 C 169.467 322.676, 171.833 322, 174.071 322 L 178 322 178 333.450 C 178 343.300, 177.755 345.043, 176.250 345.920 C 174.918 346.696, 175.918 346.946, 180.441 346.970 C 185.401 346.995, 186.111 346.794, 184.737 345.750 C 183.455 344.776, 183.066 342.623, 182.977 336 C 182.775 320.899, 182.463 322, 186.950 322 C 189.658 322, 191.221 322.551, 191.920 323.750 C 192.840 325.331, 192.942 325.338, 192.970 323.832 C 192.986 322.914, 193.231 321.564, 193.513 320.832 C 193.927 319.755, 191.599 319.564, 181.374 319.835 C 171.628 320.092, 168.528 319.863, 167.877 318.835 C 167.329 317.971, 167.025 318.848, 167.015 321.321 M 118.859 321.158 C 114.776 323.525, 111 329.416, 111 333.418 C 111 347.276, 129.810 353.098, 138.259 341.856 C 141.983 336.900, 142.510 332.941, 140.153 327.613 C 136.663 319.722, 126.596 316.671, 118.859 321.158 M 145.559 319.723 C 140.913 320.101, 140.764 320.198, 143.059 321.340 C 145.402 322.506, 145.511 323.006, 145.783 333.797 C 146.058 344.708, 145.998 345.065, 143.783 345.900 C 141.974 346.581, 142.695 346.836, 147.251 347.130 C 152.791 347.486, 154.632 346.840, 151.500 345.638 C 150.442 345.232, 150 343.581, 150 340.031 C 150 336.226, 150.365 335, 151.500 335 C 153.172 335, 154.572 336.428, 159.319 342.975 C 163.521 348.770, 169.509 352.928, 174.516 353.525 C 178.008 353.942, 178.153 353.886, 175.685 353.070 C 171.493 351.683, 166.430 347.485, 163.085 342.624 C 158.720 336.279, 158.387 333.924, 161.448 331.049 C 163.955 328.693, 164.685 325.571, 163.235 323.400 C 161.274 320.464, 154.293 319.012, 145.559 319.723 M 280.884 320.364 C 283.470 321.514, 283.973 323.818, 283.971 334.500 C 283.969 343.755, 283.582 345.288, 281 346.271 C 280.175 346.585, 284.113 346.878, 289.750 346.921 C 299.668 346.997, 300 346.929, 300 344.800 C 300 343.089, 299.733 342.867, 298.800 343.800 C 298.140 344.460, 295.440 345, 292.800 345 L 288 345 288 339.500 L 288 334 291.917 334 C 294.114 334, 296.055 334.549, 296.338 335.250 C 296.615 335.938, 296.842 334.925, 296.842 333 C 296.842 331.075, 296.615 330.063, 296.338 330.750 C 296.055 331.451, 294.114 332, 291.917 332 L 288 332 288 326.370 L 288 320.740 292.624 321.261 C 295.167 321.548, 297.661 322.394, 298.167 323.141 C 298.833 324.125, 299.006 323.862, 298.793 322.188 C 298.511 319.965, 298.125 319.869, 288.721 319.688 C 282.547 319.569, 279.658 319.819, 280.884 320.364 M 311.020 320.752 C 303.019 324.772, 300.306 335.645, 305.703 342.059 C 310.851 348.177, 317.839 349.505, 324.987 345.725 C 342.158 336.645, 328.389 312.025, 311.020 320.752 M 337.500 319.923 C 333.732 320.358, 333.055 320.662, 334.750 321.156 C 336.922 321.790, 337 322.229, 337 333.837 C 337 345.526, 336.937 345.872, 334.750 346.243 C 333.512 346.453, 335.313 346.822, 338.752 347.063 C 342.190 347.303, 345.003 347.163, 345.002 346.750 C 345.001 346.337, 344.325 346, 343.500 346 C 342.348 346, 342 344.722, 342 340.500 C 342 333.257, 344.882 332.911, 348.378 339.734 C 351.870 346.549, 361.828 353.956, 367.500 353.956 C 368.719 353.956, 367.833 353.199, 365.230 352.018 C 360.062 349.672, 355.692 345.140, 352.374 338.684 L 349.899 333.867 352.450 331.861 C 355.848 329.188, 356.010 323.677, 352.750 321.641 C 349.894 319.858, 343.909 319.183, 337.500 319.923 M 367.500 320.487 C 360.849 323.611, 357.470 329.014, 358.300 335.201 C 359.407 343.454, 364.429 347.517, 373.456 347.465 C 381.923 347.415, 384 346.051, 384 340.538 C 384 337.197, 384.418 336.037, 385.750 335.689 C 386.712 335.438, 384.575 335.241, 381 335.252 C 377.425 335.263, 375.512 335.467, 376.750 335.706 C 378.721 336.085, 379 336.752, 379 341.070 L 379 346 374.950 346 C 366.723 346, 362.613 341.360, 362.618 332.079 C 362.621 324.284, 368.206 319.071, 374.869 320.642 C 378.091 321.402, 381.975 324.790, 382.070 326.924 C 382.121 328.057, 382.358 327.943, 382.915 326.516 C 384.132 323.401, 383.061 321.217, 379.751 320.063 C 375.637 318.629, 371.124 318.785, 367.500 320.487 M 390.480 320.610 C 391.689 321.493, 392 324.095, 392 333.311 C 392 343.294, 391.757 345.042, 390.250 345.920 C 388.936 346.685, 390.118 346.931, 395 346.906 C 399.890 346.881, 400.943 346.649, 399.250 345.969 C 397.102 345.106, 397 344.550, 397 333.732 C 397 326.843, 397.430 321.970, 398.097 321.303 C 398.893 320.507, 397.790 320.109, 394.077 319.853 C 390.142 319.582, 389.311 319.756, 390.480 320.610 M 427.750 319.662 C 428.438 319.940, 429.039 321.592, 429.086 323.333 L 429.172 326.500 430.044 323.585 C 430.523 321.982, 431.497 320.302, 432.208 319.851 C 433.015 319.339, 432.186 319.055, 430 319.094 C 428.075 319.129, 427.063 319.385, 427.750 319.662 M 434.118 323.250 C 434.223 326.998, 434.311 327.152, 434.869 324.554 L 435.501 321.609 436.881 324.554 L 438.262 327.500 439.336 324.500 L 440.410 321.500 441.087 324.500 C 441.703 327.234, 441.774 327.124, 441.882 323.250 C 442.016 318.426, 440.634 317.649, 439.214 321.750 L 438.262 324.500 436.971 321.750 C 435.105 317.777, 433.982 318.367, 434.118 323.250 M 122.255 321.117 C 118.371 322.239, 116.215 325.246, 115.884 330 C 115.416 336.728, 116.019 338.877, 119.368 342.429 C 122.250 345.485, 123.369 345.995, 127.118 345.968 C 134.097 345.918, 137.003 342.491, 136.996 334.316 C 136.992 328.264, 134.152 323.379, 129.510 321.440 C 127.615 320.648, 125.937 320.041, 125.782 320.090 C 125.627 320.140, 124.040 320.602, 122.255 321.117 M 199.250 321.080 C 200.746 321.951, 200.998 323.654, 200.985 332.800 C 200.969 343.730, 200.628 345.271, 198 346.271 C 197.175 346.585, 199.120 346.878, 202.321 346.921 C 207.614 346.993, 208 346.857, 206.571 345.429 C 205.568 344.425, 205 342.076, 205 338.929 L 205 334 212.500 334 L 220 334 220 339.450 C 220 343.586, 219.578 345.146, 218.250 345.920 C 216.936 346.685, 218.118 346.931, 223 346.906 C 227.890 346.881, 228.943 346.649, 227.250 345.969 C 225.093 345.102, 225 344.573, 225 333.106 C 225 322.557, 225.206 321.093, 226.750 320.689 C 227.713 320.438, 225.800 320.232, 222.500 320.232 C 219.200 320.232, 217.287 320.438, 218.250 320.689 C 219.670 321.060, 220 322.272, 220 327.117 L 220 333.088 212.750 332.794 L 205.500 332.500 205.200 327.871 C 204.990 324.624, 205.384 322.759, 206.522 321.621 C 208.017 320.126, 207.728 320.002, 202.821 320.030 C 198.719 320.054, 197.901 320.294, 199.250 321.080 M 314.374 320.689 C 306.601 322.215, 304.467 336.006, 310.933 342.928 C 313.248 345.406, 314.608 346, 317.967 346 C 323.414 346, 325.855 344.592, 327.585 340.452 C 330.550 333.355, 327.805 324.559, 321.726 321.674 C 319.785 320.753, 317.816 320.061, 317.349 320.136 C 316.882 320.211, 315.543 320.460, 314.374 320.689 M 412.796 332.250 C 408.917 340.949, 406.633 344.858, 404.917 345.735 C 402.691 346.873, 402.894 346.970, 407.500 346.970 C 410.875 346.970, 412.035 346.675, 411.068 346.063 C 409.873 345.307, 409.838 344.484, 410.858 341.079 C 412.067 337.043, 412.131 337, 416.882 337 C 421.644 337, 421.694 337.034, 422.924 341.140 C 423.938 344.526, 423.921 345.434, 422.832 346.125 C 422.026 346.636, 423.871 346.949, 427.500 346.917 C 432.522 346.873, 433.136 346.689, 431.268 345.788 C 429.298 344.837, 423.873 332.909, 420.564 322.250 C 420.180 321.012, 419.504 320, 419.062 320 C 418.620 320, 415.800 325.512, 412.796 332.250 M 150 327.500 C 150 333.686, 150.115 334, 152.389 334 C 155.110 334, 158.801 331.234, 159.062 329 C 159.654 323.927, 157.410 321, 152.929 321 L 150 321 150 327.500 M 341.751 323.250 C 341.495 324.488, 341.334 327.300, 341.393 329.500 C 341.498 333.409, 341.579 333.496, 344.955 333.330 C 348.913 333.136, 351 330.904, 351 326.866 C 351 321.793, 342.722 318.557, 341.751 323.250 M 415.212 330.500 L 413.026 335 416.952 335 L 420.879 335 419.345 330.500 C 418.502 328.025, 417.719 326, 417.605 326 C 417.492 326, 416.415 328.025, 415.212 330.500" stroke="none" fill="#e6eef2" fill-rule="evenodd"/><path d="M 0 256.002 L 0 512.004 256.250 511.752 L 512.500 511.500 512.752 255.750 L 513.004 0 256.502 0 L 0 0 0 256.002 M 0.492 256.500 C 0.492 397.300, 0.608 454.751, 0.750 384.170 C 0.892 313.588, 0.892 198.388, 0.750 128.170 C 0.608 57.951, 0.492 115.700, 0.492 256.500 M 318.878 160.309 C 306.464 164.540, 296.451 174.572, 292.009 187.225 C 285.571 205.570, 295.191 225.914, 313.824 233.358 C 319.770 235.733, 333.846 236.627, 341.044 235.087 C 346.544 233.910, 360.030 228.219, 359.965 227.102 C 359.945 226.771, 359.286 225.375, 358.500 224 C 356.805 221.035, 356.598 213.986, 358.053 208.750 C 358.956 205.498, 359.486 205, 362.047 205 C 364.333 205, 365 204.548, 365 203 C 365 201.081, 364.333 201, 348.500 201 C 332.667 201, 332 201.081, 332 203 C 332 204.647, 332.667 205, 335.777 205 C 337.855 205, 340.555 205.701, 341.777 206.557 C 343.771 207.953, 344 208.969, 344 216.434 C 344 226.769, 343.416 227.379, 333.097 227.834 C 326.307 228.133, 324.917 227.863, 320.018 225.291 C 309.742 219.898, 304.564 209.537, 304.631 194.500 C 304.723 173.724, 320.127 161.394, 338.266 167.575 C 343.772 169.451, 351.231 175.730, 352.986 179.966 C 353.677 181.635, 354.577 183, 354.985 183 C 355.877 183, 357 175.410, 357 169.381 C 357 165.330, 356.736 164.906, 353.031 163.016 C 347.668 160.280, 337.694 158.027, 331 158.041 C 327.942 158.047, 322.560 159.054, 318.878 160.309 M 141 163.455 C 141 164.326, 142.407 165.173, 144.511 165.568 C 146.442 165.930, 148.355 166.738, 148.761 167.363 C 149.167 167.989, 149.725 179.075, 150 192 C 150.480 214.575, 150.598 215.692, 152.992 220.379 C 158.089 230.361, 168.381 236, 181.500 236 C 191.466 236, 198.521 233.329, 203.865 227.531 C 210.953 219.841, 211.285 218.374, 211.927 191.901 C 212.527 167.206, 212.951 165, 217.107 165 C 218.131 165, 220.438 166.312, 222.234 167.916 L 225.500 170.832 225.794 192.166 C 225.956 203.900, 225.731 217.309, 225.294 221.964 L 224.500 230.429 220.698 231.326 C 218.048 231.951, 216.988 232.700, 217.199 233.797 C 217.455 235.125, 219.483 235.380, 230.251 235.435 C 241.316 235.491, 243 235.288, 243 233.895 C 243 232.941, 241.680 231.911, 239.750 231.357 C 236.682 230.477, 236.458 230.091, 235.741 224.463 C 235.324 221.183, 235.099 210.705, 235.241 201.177 L 235.500 183.854 246.439 195.677 C 268.822 219.869, 283.319 234.908, 284.804 235.478 C 285.646 235.801, 286.790 235.610, 287.347 235.053 C 287.999 234.401, 288.267 222.836, 288.100 202.604 C 287.922 181.129, 288.190 170.514, 288.943 169.106 C 289.550 167.973, 291.498 166.669, 293.273 166.209 C 295.048 165.749, 296.500 164.726, 296.500 163.936 C 296.500 162.762, 294.133 162.500, 283.500 162.500 C 272.977 162.500, 270.500 162.769, 270.500 163.911 C 270.500 164.687, 272.033 165.838, 273.907 166.469 C 275.922 167.147, 277.667 168.570, 278.178 169.952 C 278.653 171.237, 278.920 180.828, 278.771 191.265 L 278.500 210.242 256.500 186.155 L 234.500 162.068 214.177 162.034 C 195.680 162.003, 193.882 162.151, 194.177 163.678 C 194.355 164.601, 195.766 165.695, 197.314 166.109 C 203.051 167.643, 203 167.419, 203 191 C 203 214.291, 202.474 217.409, 197.837 221.625 C 193.985 225.128, 191.234 226.103, 185.128 226.132 C 175.604 226.178, 169.502 222.518, 165.908 214.605 C 164.279 211.019, 164.041 207.820, 164.022 189.285 C 164.001 169.322, 164.114 168.009, 165.934 167.035 C 166.998 166.466, 168.746 166, 169.818 166 C 170.926 166, 171.992 165.137, 172.290 164 C 172.797 162.062, 172.320 162, 156.906 162 C 143.654 162, 141 162.243, 141 163.455 M 142 253 C 142 253.661, 179.833 254, 253.500 254 C 327.167 254, 365 253.661, 365 253 C 365 252.339, 327.167 252, 253.500 252 C 179.833 252, 142 252.339, 142 253 M 385 270 C 385.589 271.100, 386.505 272, 387.035 272 C 388.623 272, 388.125 269.262, 386.418 268.607 C 384.004 267.680, 383.843 267.838, 385 270 M 378.713 271.011 C 377.308 272.117, 375.386 275.042, 374.443 277.511 C 373.194 280.780, 372.154 282.032, 370.614 282.116 C 368.925 282.209, 368.852 282.324, 370.250 282.689 C 371.212 282.941, 372.005 283.451, 372.012 283.823 C 372.052 286.070, 365.366 303.303, 363.805 304.979 C 361.603 307.343, 363.106 307.752, 365.435 305.422 C 367.797 303.060, 369.109 300.315, 372.086 291.511 C 374.238 285.144, 375.265 283.388, 377.143 282.861 C 379.450 282.213, 379.453 282.197, 377.286 282.100 L 375.071 282 377.107 277.250 C 378.227 274.637, 379.856 271.712, 380.726 270.750 C 382.847 268.407, 381.862 268.534, 378.713 271.011 M 220 273.250 C 220 273.663, 220.675 274, 221.500 274 C 222.746 274, 223 275.936, 223 285.427 C 223 295.468, 222.788 296.909, 221.250 297.311 C 220.287 297.562, 223.662 297.820, 228.750 297.884 C 233.838 297.948, 238 297.587, 238 297.082 C 238 296.577, 238.262 295.339, 238.582 294.332 C 239.132 292.598, 239.086 292.594, 237.721 294.250 C 236.783 295.389, 234.872 296, 232.247 296 C 227.762 296, 227 295.026, 227 289.288 L 227 285.740 231.500 286.247 C 235.205 286.665, 236 286.465, 236 285.120 C 236 283.797, 235.144 283.554, 231.500 283.843 L 227 284.201 227 279.601 L 227 275 231.300 275 C 233.665 275, 236.140 275.540, 236.800 276.200 C 237.733 277.133, 238 276.856, 238 274.950 C 238 272.531, 237.884 272.500, 229 272.500 C 224.050 272.500, 220 272.837, 220 273.250 M 244 272.981 C 240.628 273.380, 240.044 273.671, 241.670 274.142 C 243.621 274.707, 243.874 275.568, 244.170 282.636 C 244.630 293.599, 244.200 296.792, 242.191 297.322 C 241.261 297.567, 243.200 297.785, 246.500 297.805 C 249.800 297.825, 251.825 297.585, 251 297.271 C 248.734 296.408, 248.032 294.876, 248.015 290.750 C 247.992 285.127, 251.052 285.672, 255.351 292.055 C 259.602 298.367, 265.761 302.978, 270.709 303.552 C 274.343 303.974, 274.376 303.952, 271.500 303.025 C 266.777 301.503, 261.405 296.454, 258.671 290.967 L 256.161 285.930 258.580 283.510 C 259.911 282.180, 261 280.170, 261 279.045 C 261 276.383, 257.610 273.035, 254.750 272.872 C 253.512 272.802, 251.600 272.678, 250.500 272.597 C 249.400 272.516, 246.475 272.689, 244 272.981 M 268.881 272.981 C 267.991 273.515, 266.700 275.311, 266.012 276.970 C 264.394 280.878, 266.205 283.860, 272.209 287.172 C 275.718 289.108, 276.500 290.062, 276.500 292.411 C 276.500 293.990, 275.782 295.735, 274.905 296.288 C 272.359 297.894, 268.115 296.308, 267.407 293.485 C 266.601 290.275, 265 290.270, 265 293.477 C 265 299.054, 274.976 300.728, 278.471 295.738 C 281.811 290.969, 279.786 286.009, 273.083 282.543 C 269.186 280.528, 267.417 277.407, 269.053 275.436 C 270.670 273.487, 273.932 273.628, 276.273 275.747 C 278.135 277.432, 278.191 277.405, 277.852 274.997 C 277.561 272.936, 276.889 272.457, 274 272.255 C 272.075 272.120, 269.772 272.447, 268.881 272.981 M 286.500 272.907 C 283.117 273.308, 282.066 273.732, 283.250 274.219 C 284.760 274.839, 285 276.377, 285 285.419 C 285 294.347, 284.741 296.052, 283.250 296.920 C 281.909 297.701, 282.786 297.939, 287 297.939 C 291.214 297.939, 292.091 297.701, 290.750 296.920 C 289.252 296.047, 289 294.324, 289 284.950 C 289 275.883, 289.258 274, 290.500 274 C 291.325 274, 292 273.550, 292 273 C 292 272.450, 291.887 272.071, 291.750 272.157 C 291.613 272.244, 289.250 272.581, 286.500 272.907 M 294.818 274.820 C 295.132 276.468, 295.570 276.830, 296.330 276.070 C 296.918 275.482, 299.110 275, 301.200 275 L 305 275 305 285.450 C 305 294.348, 304.740 296.052, 303.250 296.920 C 301.925 297.692, 302.957 297.931, 307.500 297.906 C 312.091 297.881, 312.972 297.661, 311.250 296.969 C 309.116 296.111, 309 295.520, 309 285.532 L 309 275 313.500 275 C 315.975 275, 318 275.450, 318 276 C 318 276.550, 318.450 277, 319 277 C 319.550 277, 320 276.325, 320 275.500 C 320 273.523, 322.969 273.590, 325.886 275.633 C 331.211 279.363, 334.324 294.547, 330.250 296.920 C 328.925 297.692, 329.957 297.931, 334.500 297.906 C 339.091 297.881, 339.972 297.661, 338.250 296.969 C 336.406 296.228, 336.001 295.291, 336.006 291.782 C 336.018 282.059, 340.825 274.032, 346.673 273.970 C 349.037 273.944, 349.220 273.776, 347.787 272.941 C 345.257 271.466, 339.313 274.287, 337.227 277.952 C 335.234 281.455, 334.369 281.739, 333.550 279.158 C 333.229 278.145, 331.820 276.240, 330.420 274.925 C 327.947 272.602, 327.401 272.534, 311.126 272.517 L 294.377 272.500 294.818 274.820 M 117.155 273.671 C 118.515 274.032, 118.872 275.793, 119.155 283.534 C 119.475 292.278, 119.700 293.158, 122.273 295.729 C 124.572 298.027, 125.909 298.500, 130.109 298.500 C 134.418 298.500, 135.533 298.081, 137.587 295.694 C 139.650 293.295, 140.002 291.846, 140.014 285.694 C 140.030 276.998, 140.680 274.247, 142.853 273.670 C 143.759 273.429, 142.250 273.232, 139.500 273.232 C 136.750 273.232, 135.287 273.438, 136.250 273.689 C 137.759 274.084, 138 275.433, 138 283.502 C 138 295.044, 136.887 296.688, 129.500 296.060 C 128.400 295.967, 126.487 294.765, 125.250 293.389 C 123.314 291.237, 123 289.776, 123 282.912 C 123 275.575, 123.180 274.863, 125.250 274.031 C 126.950 273.348, 126.032 273.140, 121.500 273.179 C 118.200 273.208, 116.245 273.430, 117.155 273.671 M 146.500 274.195 C 149.674 275.995, 149.969 277, 149.969 286 C 149.969 294.764, 149.566 296.294, 147 297.271 C 146.175 297.585, 147.750 297.864, 150.500 297.891 C 154.359 297.928, 155.101 297.707, 153.750 296.920 C 152.303 296.077, 152.007 294.482, 152.040 287.700 L 152.080 279.500 161.509 289.500 L 170.937 299.500 170.969 286.823 C 170.996 275.607, 171.202 274.094, 172.750 273.689 C 173.713 273.438, 172.250 273.215, 169.500 273.195 C 166.750 273.175, 165.175 273.415, 166 273.729 C 168.533 274.693, 168.971 276.224, 168.937 284 L 168.904 291.500 160.202 282.245 C 152.399 273.946, 151.138 272.993, 148 273.025 C 144.875 273.057, 144.714 273.182, 146.500 274.195 M 178.250 273.689 C 179.782 274.090, 180 275.509, 180 285.106 C 180 295.536, 179.891 296.108, 177.750 296.969 C 176.028 297.661, 176.909 297.881, 181.500 297.906 C 186.043 297.931, 187.075 297.692, 185.750 296.920 C 184.253 296.048, 184 294.328, 184 285.024 C 184 275.505, 184.219 274.090, 185.750 273.689 C 186.713 273.438, 185.025 273.232, 182 273.232 C 178.975 273.232, 177.287 273.438, 178.250 273.689 M 191.509 273.942 C 192.882 274.499, 195.064 278.590, 198.410 286.878 C 201.101 293.545, 203.484 299, 203.706 299 C 203.928 299, 205.241 296.413, 206.623 293.250 C 213.148 278.316, 215.373 274.066, 216.875 273.665 C 217.769 273.427, 216.475 273.215, 214 273.195 C 211.525 273.175, 210.063 273.385, 210.750 273.662 C 211.438 273.940, 212 274.691, 212 275.333 C 212 276.901, 205.641 291.970, 204.972 291.987 C 204.681 291.994, 202.970 288.104, 201.170 283.341 C 198.593 276.527, 198.173 274.507, 199.198 273.857 C 199.970 273.367, 198.261 273.050, 195 273.079 C 191.153 273.112, 190.104 273.372, 191.509 273.942 M 248 279.531 C 248 285.821, 249.221 286.958, 253.689 284.827 C 259.370 282.117, 257.300 274, 250.929 274 C 248.043 274, 248 274.082, 248 279.531 M 363.384 283.292 C 365.066 284.521, 365.054 284.837, 363.135 289.888 C 362.026 292.805, 360.305 295.802, 359.310 296.547 C 357.633 297.801, 357.667 297.859, 359.774 297.327 C 364.973 296.017, 369.050 285.972, 365.450 283.340 C 364.442 282.603, 363.168 282, 362.618 282 C 362.068 282, 362.413 282.581, 363.384 283.292 M 357.135 285.811 C 354.233 289.886, 353.654 293.161, 355.424 295.500 C 356.882 297.428, 356.938 297.390, 356.968 294.461 C 356.986 292.790, 357.900 289.658, 359 287.500 C 361.306 282.976, 361.301 283, 360.068 283 C 359.556 283, 358.235 284.265, 357.135 285.811 M 71 310.731 C 71 310.932, 72.169 312.101, 73.597 313.330 C 76.182 315.554, 76.193 315.628, 76.072 330.032 C 75.969 342.274, 75.694 344.692, 74.284 345.750 C 72.875 346.807, 73.372 347, 77.500 347 C 81.862 347, 82.184 346.855, 80.522 345.639 C 78.956 344.495, 78.589 342.520, 78.204 333.190 C 77.953 327.091, 78.027 321.371, 78.369 320.480 C 78.846 319.239, 80.927 320.928, 87.242 327.679 C 91.780 332.531, 98.001 339.142, 101.067 342.371 L 106.640 348.242 106.570 330.586 C 106.512 315.927, 106.755 312.768, 108 311.980 C 109.106 311.280, 108.537 311.027, 105.832 311.015 C 103.814 311.007, 101.339 310.746, 100.332 310.436 C 99.324 310.126, 99.737 310.591, 101.250 311.468 L 104 313.064 104 325.532 C 104 332.389, 103.820 338, 103.601 338 C 103.381 338, 97.647 332.038, 90.859 324.750 C 80.155 313.258, 78.018 311.425, 74.758 310.933 C 72.691 310.621, 71 310.530, 71 310.731 M 251.056 312.252 C 238.039 319.136, 236.361 336.916, 248.002 344.620 C 253.417 348.203, 261.636 348.946, 268.959 346.514 C 273.878 344.880, 274.086 344.667, 273.478 341.901 C 272.532 337.591, 273.861 332.998, 276.344 331.996 C 277.823 331.400, 275.989 331.138, 270.500 331.163 C 265.748 331.185, 263.515 331.480, 265 331.890 C 266.827 332.395, 267.751 333.586, 268.433 336.318 C 270.581 344.919, 264.752 349.086, 255.510 345.557 C 248.909 343.036, 245.654 337.834, 245.222 329.111 C 244.657 317.733, 249.711 311.500, 259.500 311.500 C 265.351 311.500, 269.493 313.733, 271.735 318.096 C 272.921 320.404, 272.971 320.349, 272.985 316.699 C 272.998 313.301, 272.632 312.744, 269.532 311.449 C 264.250 309.242, 256.076 309.597, 251.056 312.252 M 167.015 321.321 C 167.001 324.795, 167.143 325, 168.571 323.571 C 169.467 322.676, 171.833 322, 174.071 322 L 178 322 178 333.450 C 178 343.300, 177.755 345.043, 176.250 345.920 C 174.918 346.696, 175.918 346.946, 180.441 346.970 C 185.401 346.995, 186.111 346.794, 184.737 345.750 C 183.455 344.776, 183.066 342.623, 182.977 336 C 182.775 320.899, 182.463 322, 186.950 322 C 189.658 322, 191.221 322.551, 191.920 323.750 C 192.840 325.331, 192.942 325.338, 192.970 323.832 C 192.986 322.914, 193.231 321.564, 193.513 320.832 C 193.927 319.755, 191.599 319.564, 181.374 319.835 C 171.628 320.092, 168.528 319.863, 167.877 318.835 C 167.329 317.971, 167.025 318.848, 167.015 321.321 M 118.859 321.158 C 114.776 323.525, 111 329.416, 111 333.418 C 111 347.276, 129.810 353.098, 138.259 341.856 C 141.983 336.900, 142.510 332.941, 140.153 327.613 C 136.663 319.722, 126.596 316.671, 118.859 321.158 M 145.559 319.723 C 140.913 320.101, 140.764 320.198, 143.059 321.340 C 145.402 322.506, 145.511 323.006, 145.783 333.797 C 146.058 344.708, 145.998 345.065, 143.783 345.900 C 141.974 346.581, 142.695 346.836, 147.251 347.130 C 152.791 347.486, 154.632 346.840, 151.500 345.638 C 150.442 345.232, 150 343.581, 150 340.031 C 150 336.226, 150.365 335, 151.500 335 C 153.172 335, 154.572 336.428, 159.319 342.975 C 163.521 348.770, 169.509 352.928, 174.516 353.525 C 178.008 353.942, 178.153 353.886, 175.685 353.070 C 171.493 351.683, 166.430 347.485, 163.085 342.624 C 158.720 336.279, 158.387 333.924, 161.448 331.049 C 163.955 328.693, 164.685 325.571, 163.235 323.400 C 161.274 320.464, 154.293 319.012, 145.559 319.723 M 280.884 320.364 C 283.470 321.514, 283.973 323.818, 283.971 334.500 C 283.969 343.755, 283.582 345.288, 281 346.271 C 280.175 346.585, 284.113 346.878, 289.750 346.921 C 299.668 346.997, 300 346.929, 300 344.800 C 300 343.089, 299.733 342.867, 298.800 343.800 C 298.140 344.460, 295.440 345, 292.800 345 L 288 345 288 339.500 L 288 334 291.917 334 C 294.114 334, 296.055 334.549, 296.338 335.250 C 296.615 335.938, 296.842 334.925, 296.842 333 C 296.842 331.075, 296.615 330.063, 296.338 330.750 C 296.055 331.451, 294.114 332, 291.917 332 L 288 332 288 326.370 L 288 320.740 292.624 321.261 C 295.167 321.548, 297.661 322.394, 298.167 323.141 C 298.833 324.125, 299.006 323.862, 298.793 322.188 C 298.511 319.965, 298.125 319.869, 288.721 319.688 C 282.547 319.569, 279.658 319.819, 280.884 320.364 M 311.020 320.752 C 303.019 324.772, 300.306 335.645, 305.703 342.059 C 310.851 348.177, 317.839 349.505, 324.987 345.725 C 342.158 336.645, 328.389 312.025, 311.020 320.752 M 337.500 319.923 C 333.732 320.358, 333.055 320.662, 334.750 321.156 C 336.922 321.790, 337 322.229, 337 333.837 C 337 345.526, 336.937 345.872, 334.750 346.243 C 333.512 346.453, 335.313 346.822, 338.752 347.063 C 342.190 347.303, 345.003 347.163, 345.002 346.750 C 345.001 346.337, 344.325 346, 343.500 346 C 342.348 346, 342 344.722, 342 340.500 C 342 333.257, 344.882 332.911, 348.378 339.734 C 351.870 346.549, 361.828 353.956, 367.500 353.956 C 368.719 353.956, 367.833 353.199, 365.230 352.018 C 360.062 349.672, 355.692 345.140, 352.374 338.684 L 349.899 333.867 352.450 331.861 C 355.848 329.188, 356.010 323.677, 352.750 321.641 C 349.894 319.858, 343.909 319.183, 337.500 319.923 M 367.500 320.487 C 360.849 323.611, 357.470 329.014, 358.300 335.201 C 359.407 343.454, 364.429 347.517, 373.456 347.465 C 381.923 347.415, 384 346.051, 384 340.538 C 384 337.197, 384.418 336.037, 385.750 335.689 C 386.712 335.438, 384.575 335.241, 381 335.252 C 377.425 335.263, 375.512 335.467, 376.750 335.706 C 378.721 336.085, 379 336.752, 379 341.070 L 379 346 374.950 346 C 366.723 346, 362.613 341.360, 362.618 332.079 C 362.621 324.284, 368.206 319.071, 374.869 320.642 C 378.091 321.402, 381.975 324.790, 382.070 326.924 C 382.121 328.057, 382.358 327.943, 382.915 326.516 C 384.132 323.401, 383.061 321.217, 379.751 320.063 C 375.637 318.629, 371.124 318.785, 367.500 320.487 M 390.480 320.610 C 391.689 321.493, 392 324.095, 392 333.311 C 392 343.294, 391.757 345.042, 390.250 345.920 C 388.936 346.685, 390.118 346.931, 395 346.906 C 399.890 346.881, 400.943 346.649, 399.250 345.969 C 397.102 345.106, 397 344.550, 397 333.732 C 397 326.843, 397.430 321.970, 398.097 321.303 C 398.893 320.507, 397.790 320.109, 394.077 319.853 C 390.142 319.582, 389.311 319.756, 390.480 320.610 M 427.750 319.662 C 428.438 319.940, 429.039 321.592, 429.086 323.333 L 429.172 326.500 430.044 323.585 C 430.523 321.982, 431.497 320.302, 432.208 319.851 C 433.015 319.339, 432.186 319.055, 430 319.094 C 428.075 319.129, 427.063 319.385, 427.750 319.662 M 434.118 323.250 C 434.223 326.998, 434.311 327.152, 434.869 324.554 L 435.501 321.609 436.881 324.554 L 438.262 327.500 439.336 324.500 L 440.410 321.500 441.087 324.500 C 441.703 327.234, 441.774 327.124, 441.882 323.250 C 442.016 318.426, 440.634 317.649, 439.214 321.750 L 438.262 324.500 436.971 321.750 C 435.105 317.777, 433.982 318.367, 434.118 323.250 M 122.255 321.117 C 118.371 322.239, 116.215 325.246, 115.884 330 C 115.416 336.728, 116.019 338.877, 119.368 342.429 C 122.250 345.485, 123.369 345.995, 127.118 345.968 C 134.097 345.918, 137.003 342.491, 136.996 334.316 C 136.992 328.264, 134.152 323.379, 129.510 321.440 C 127.615 320.648, 125.937 320.041, 125.782 320.090 C 125.627 320.140, 124.040 320.602, 122.255 321.117 M 199.250 321.080 C 200.746 321.951, 200.998 323.654, 200.985 332.800 C 200.969 343.730, 200.628 345.271, 198 346.271 C 197.175 346.585, 199.120 346.878, 202.321 346.921 C 207.614 346.993, 208 346.857, 206.571 345.429 C 205.568 344.425, 205 342.076, 205 338.929 L 205 334 212.500 334 L 220 334 220 339.450 C 220 343.586, 219.578 345.146, 218.250 345.920 C 216.936 346.685, 218.118 346.931, 223 346.906 C 227.890 346.881, 228.943 346.649, 227.250 345.969 C 225.093 345.102, 225 344.573, 225 333.106 C 225 322.557, 225.206 321.093, 226.750 320.689 C 227.713 320.438, 225.800 320.232, 222.500 320.232 C 219.200 320.232, 217.287 320.438, 218.250 320.689 C 219.670 321.060, 220 322.272, 220 327.117 L 220 333.088 212.750 332.794 L 205.500 332.500 205.200 327.871 C 204.990 324.624, 205.384 322.759, 206.522 321.621 C 208.017 320.126, 207.728 320.002, 202.821 320.030 C 198.719 320.054, 197.901 320.294, 199.250 321.080 M 314.374 320.689 C 306.601 322.215, 304.467 336.006, 310.933 342.928 C 313.248 345.406, 314.608 346, 317.967 346 C 323.414 346, 325.855 344.592, 327.585 340.452 C 330.550 333.355, 327.805 324.559, 321.726 321.674 C 319.785 320.753, 317.816 320.061, 317.349 320.136 C 316.882 320.211, 315.543 320.460, 314.374 320.689 M 412.796 332.250 C 408.917 340.949, 406.633 344.858, 404.917 345.735 C 402.691 346.873, 402.894 346.970, 407.500 346.970 C 410.875 346.970, 412.035 346.675, 411.068 346.063 C 409.873 345.307, 409.838 344.484, 410.858 341.079 C 412.067 337.043, 412.131 337, 416.882 337 C 421.644 337, 421.694 337.034, 422.924 341.140 C 423.938 344.526, 423.921 345.434, 422.832 346.125 C 422.026 346.636, 423.871 346.949, 427.500 346.917 C 432.522 346.873, 433.136 346.689, 431.268 345.788 C 429.298 344.837, 423.873 332.909, 420.564 322.250 C 420.180 321.012, 419.504 320, 419.062 320 C 418.620 320, 415.800 325.512, 412.796 332.250 M 150 327.500 C 150 333.686, 150.115 334, 152.389 334 C 155.110 334, 158.801 331.234, 159.062 329 C 159.654 323.927, 157.410 321, 152.929 321 L 150 321 150 327.500 M 341.751 323.250 C 341.495 324.488, 341.334 327.300, 341.393 329.500 C 341.498 333.409, 341.579 333.496, 344.955 333.330 C 348.913 333.136, 351 330.904, 351 326.866 C 351 321.793, 342.722 318.557, 341.751 323.250 M 415.212 330.500 L 413.026 335 416.952 335 L 420.879 335 419.345 330.500 C 418.502 328.025, 417.719 326, 417.605 326 C 417.492 326, 416.415 328.025, 415.212 330.500" stroke="none" fill="#052d84" fill-rule="evenodd"/></svg>